<svg xmlns="http://www.w3.org/2000/svg" width="1913pt" height="260pt" viewBox="0 0 1912.84 260">
    <g class="graph">
        <path fill="#fff" d="M0 260V0h1912.84v260z"/>
        <g class="node" transform="translate(4 256)">
            <ellipse cx="639.77" cy="-234" fill="none" stroke="#000" rx="70.8" ry="18"/>
            <text x="639.77" y="-228.95" font-family="Times,serif" font-size="14" text-anchor="middle">:core:navigation</text>
        </g>
        <g class="node" transform="translate(4 256)">
            <ellipse cx="171.77" cy="-162" fill="none" stroke="#000" rx="136.82" ry="18"/>
            <text x="171.77" y="-156.95" font-family="Times,serif" font-size="14" text-anchor="middle">:features:about:about-presentation</text>
        </g>
        <g stroke="red" stroke-width="2" class="edge">
            <path fill="none" d="M584.02 31.94c-77.9 11.65-215.26 32.19-308.94 46.21"/>
            <path fill="red" d="m277.28 81.36-10.41-1.99 9.38-4.94z"/>
        </g>
        <g class="node" transform="translate(4 256)">
            <ellipse cx="796.77" cy="-162" fill="none" stroke="#000" rx="137.85" ry="18"/>
            <text x="796.77" y="-156.95" font-family="Times,serif" font-size="14" text-anchor="middle">:features:home:home-presentation</text>
        </g>
        <g stroke="#000" class="edge">
            <path fill="none" d="M677.84 38.19c21.91 9.77 50.72 22.62 74.94 33.41"/>
            <path d="m754.11 68.36 7.7 7.27-10.55-.87z"/>
        </g>
        <g class="node" transform="translate(4 256)">
            <ellipse cx="1508.77" cy="-162" fill="none" stroke="#000" rx="142.97" ry="18"/>
            <text x="1508.77" y="-156.95" font-family="Times,serif" font-size="14" text-anchor="middle">:features:search:search-presentation</text>
        </g>
        <g stroke="#000" class="edge">
            <path fill="none" d="M711.03 28.14c121 9.28 383.43 29.58 604.74 47.86 22.86 1.89 47.21 3.95 70.71 5.96"/>
            <path d="m1386.76 78.47 9.67 4.35-10.27 2.63z"/>
        </g>
        <g class="node" transform="translate(4 256)">
            <ellipse cx="483.77" cy="-162" fill="none" stroke="#000" rx="156.78" ry="18"/>
            <text x="483.77" y="-156.95" font-family="Times,serif" font-size="14" text-anchor="middle">:features:savedposts:saved-presentation</text>
        </g>
        <g stroke="#000" class="edge">
            <path fill="none" d="M609.92 38.19c-21.7 9.74-50.2 22.52-74.21 33.3"/>
            <path d="m537.32 74.6-10.56.9 7.69-7.28z"/>
        </g>
        <g class="node" transform="translate(4 256)">
            <ellipse cx="1127.77" cy="-162" fill="none" stroke="#000" rx="174.7" ry="18"/>
            <text x="1127.77" y="-156.95" font-family="Times,serif" font-size="14" text-anchor="middle">:features:postdetails:postdetails-presentation</text>
        </g>
        <g stroke="#000" class="edge">
            <path fill="none" d="M704.1 31.65c79.06 11.34 219.2 31.45 317.45 45.54"/>
            <path d="m1021.82 73.69 9.4 4.89-10.4 2.04z"/>
        </g>
        <g class="node" transform="translate(4 256)">
            <ellipse cx="545.77" cy="-18" fill="none" stroke="#000" rx="85.13" ry="18"/>
            <text x="545.77" y="-12.95" font-family="Times,serif" font-size="14" text-anchor="middle">:core:design-system</text>
        </g>
        <g stroke="#000" class="edge">
            <path fill="none" d="M573.1 23.85C419.46 26.43 65.89 36.63 29.77 76-94.54 211.5 270.52 234.03 452.86 237.04"/>
            <path d="m452.87 233.54 9.95 3.65-10.05 3.35z"/>
        </g>
        <g stroke="#000" class="edge">
            <path fill="none" d="M179.65 112.15c5.6 20.55 18.03 54.4 42.12 71.85 36.73 26.61 152.12 40.53 235.66 47.31"/>
            <path d="m457.54 227.8 9.69 4.28-10.24 2.7z"/>
        </g>
        <g class="node" transform="translate(4 256)">
            <ellipse cx="648.77" cy="-90" fill="none" stroke="#000" rx="75.41" ry="18"/>
            <text x="648.77" y="-84.95" font-family="Times,serif" font-size="14" text-anchor="middle">:core:common-ui</text>
        </g>
        <g stroke="red" stroke-width="2" class="edge">
            <path fill="none" d="M264.65 108.04c90.45 13.28 229.06 33.62 313.85 46.06"/>
            <path fill="red" d="m577.46 150.41 9.38 4.92-10.4 2.01z"/>
        </g>
        <g stroke="#000" class="edge">
            <path fill="none" d="M701.81 106.88C647.61 115.4 587.7 128.8 568.77 148c-15.52 15.75-19.75 40.88-20.4 60.42"/>
            <path d="m551.87 208.23-3.5 9.99-3.5-10z"/>
        </g>
        <g stroke="#000" class="edge">
            <path fill="none" d="M765.32 111.77c-20.89 9.88-47.47 22.45-69.56 32.89"/>
            <path d="m697.55 147.69-10.53 1.11 7.54-7.44z"/>
        </g>
        <g class="node" transform="translate(4 256)">
            <ellipse cx="1106.77" cy="-18" fill="none" stroke="#000" rx="60.05" ry="18"/>
            <text x="1106.77" y="-12.95" font-family="Times,serif" font-size="14" text-anchor="middle">:core:domain</text>
        </g>
        <g stroke="#000" class="edge">
            <path fill="none" d="M910.78 105.12c41.12 7.47 86.82 20.43 123.99 42.88 25.44 15.37 46.62 42.23 60.11 62.44"/>
            <path d="m1097.75 208.44 2.47 10.31-8.36-6.52z"/>
        </g>
        <g class="node" transform="translate(4 256)">
            <ellipse cx="900.77" cy="-90" fill="none" stroke="#000" rx="120.96" ry="18"/>
            <text x="900.77" y="-84.95" font-family="Times,serif" font-size="14" text-anchor="middle">:features:home:home-domain</text>
        </g>
        <g stroke="#000" class="edge">
            <path fill="none" d="M826.21 112.12c13.19 8.88 29.5 19.86 43.84 29.51"/>
            <path d="m871.99 138.72 6.34 8.49-10.25-2.68z"/>
        </g>
        <g stroke="#000" class="edge">
            <path fill="none" d="M1404.81 106.09c-72.87 8.62-170.92 22.41-256.04 41.91-51.79 11.87-62.01 25.06-114 36-134.35 28.26-292.99 41.98-391.31 48.25"/>
            <path d="m643.78 235.73-10.2-2.87 9.76-4.11z"/>
        </g>
        <g stroke="#000" class="edge">
            <path fill="none" d="M1398.73 105.22c-27.18 2.33-56.09 4.73-82.96 6.78-240.28 18.36-301.29 11.36-541 36-15.82 1.63-32.73 3.74-48.78 5.92"/>
            <path d="m726.93 157.33-10.39-2.1 9.43-4.84z"/>
        </g>
        <g stroke="#000" class="edge">
            <path fill="none" d="M1655.67 95.51c97.04 3.75 213.3 16.06 245.1 52.49 10.52 12.06 10.93 24.31 0 36-48.48 51.84-533.01 54.53-718.39 53.63"/>
            <path d="m1182.63 241.14-9.98-3.56 10.02-3.44z"/>
        </g>
        <g class="node" transform="translate(4 256)">
            <ellipse cx="1552.77" cy="-90" fill="none" stroke="#000" rx="65.17" ry="18"/>
            <text x="1552.77" y="-84.95" font-family="Times,serif" font-size="14" text-anchor="middle">:core:common</text>
        </g>
        <g stroke="#000" class="edge">
            <path fill="none" d="M1523.65 112.3c4.9 7.8 10.8 17.19 16.26 25.87"/>
            <path d="m1542.85 136.29 2.36 10.32-8.28-6.6z"/>
        </g>
        <g class="node" transform="translate(4 256)">
            <ellipse cx="1761.77" cy="-90" fill="none" stroke="#000" rx="126.08" ry="18"/>
            <text x="1761.77" y="-84.95" font-family="Times,serif" font-size="14" text-anchor="middle">:features:search:search-domain</text>
        </g>
        <g stroke="#000" class="edge">
            <path fill="none" d="M1570.18 110.88c38.25 10.59 88.65 24.53 128.71 35.61"/>
            <path d="m1699.73 143.1 8.7 6.04-10.57.7z"/>
        </g>
        <g stroke="#000" class="edge">
            <path fill="none" d="M366.32 105.68c-56.93 7.78-116.07 20.84-133.55 42.32-10.1 12.41-10.34 23.79 0 36 27.98 33.05 138.54 45.5 221.27 50.19"/>
            <path d="m454.21 230.69 9.8 4.03-10.17 2.96z"/>
        </g>
        <g stroke="#000" class="edge">
            <path fill="none" d="M527.29 111.77c23.86 10.12 54.37 23.06 79.33 33.65"/>
            <path d="m607.71 142.08 7.84 7.13-10.57-.68z"/>
        </g>
        <g class="node" transform="translate(4 256)">
            <ellipse cx="377.77" cy="-90" fill="none" stroke="#000" rx="139.89" ry="18"/>
            <text x="377.77" y="-84.95" font-family="Times,serif" font-size="14" text-anchor="middle">:features:savedposts:saved-domain</text>
        </g>
        <g stroke="#000" class="edge">
            <path fill="none" d="M461.84 112.12c-13.58 8.97-30.39 20.07-45.1 29.79"/>
            <path d="m418.97 144.63-10.28 2.59 6.42-8.43z"/>
        </g>
        <g stroke="#000" class="edge">
            <path fill="none" d="M1000.3 106.2c-84.86 8.81-186.44 22.78-225.53 41.8-20.92 10.18-17.78 24.5-38 36-33.61 19.12-74.6 31.75-109.63 39.86"/>
            <path d="M627.99 227.25 617.47 226l9-5.58z"/>
        </g>
        <g stroke="#000" class="edge">
            <path fill="none" d="M1021.85 108.34c-78.27 9.89-185.84 24.27-280.08 39.66-6.93 1.13-14.15 2.39-21.34 3.68"/>
            <path d="m721.14 155.11-10.47-1.63 9.21-5.25z"/>
        </g>
        <g stroke="#000" class="edge">
            <path fill="none" d="M1129.19 112.41c-3.54 23.98-9.97 67.45-14.22 96.17"/>
            <path d="m1118.45 209.01-4.93 9.38-2-10.4z"/>
        </g>
        <g class="node" transform="translate(4 256)">
            <ellipse cx="1311.77" cy="-90" fill="none" stroke="#000" rx="157.81" ry="18"/>
            <text x="1311.77" y="-84.95" font-family="Times,serif" font-size="14" text-anchor="middle">:features:postdetails:postdetails-domain</text>
        </g>
        <g stroke="#000" class="edge">
            <path fill="none" d="M1175.84 111.77c25.63 9.74 58.13 22.11 85.36 32.47"/>
            <path d="m1262.22 140.88 8.1 6.83-10.59-.28z"/>
        </g>
        <g stroke="red" stroke-width="2" class="edge">
            <path fill="none" d="M628.62 183.41c-13.46 9.15-30.44 20.69-45.19 30.71"/>
            <path fill="red" d="m586.87 216.02-10.24 2.73 6.3-8.52z"/>
        </g>
        <g stroke="#000" class="edge">
            <path fill="none" d="M715.01 176.51c87.05 13.31 244.31 37.34 332.1 50.76"/>
            <path d="m1047.39 223.77 9.36 4.97-10.41 1.95z"/>
        </g>
        <g stroke="#000" class="edge">
            <path fill="none" d="M951.77 182.97c32.75 11.13 76.36 25.95 109.62 37.25"/>
            <path d="m1062.47 216.89 8.34 6.53-10.59.1z"/>
        </g>
        <g stroke="#000" class="edge">
            <path fill="none" d="M1674.67 178.77c-14.67 1.81-29.7 3.61-43.9 5.23-161.97 18.45-352.67 37.1-452.03 46.59"/>
            <path d="m1179.17 234.07-10.29-2.54 9.62-4.43z"/>
        </g>
        <g stroke="#000" class="edge">
            <path fill="none" d="M491.3 177.52c152.64 14.65 424.79 40.79 551.31 52.93"/>
            <path d="m1042.9 226.97 9.62 4.44-10.29 2.52z"/>
        </g>
        <g stroke="#000" class="edge">
            <path fill="none" d="M1267.19 183.59c-32.34 11.04-74.69 25.5-107.17 36.59"/>
            <path d="m1161.45 223.39-10.6-.08 8.33-6.54z"/>
        </g>
    </g>
</svg>
