<svg xmlns="http://www.w3.org/2000/svg" width="660" height="188pt" viewBox="0 0 495.3 188">
    <g class="graph">
        <path fill="#fff" d="M0 188V0h495.3v188z"/>
        <g class="node" transform="translate(4 184)">
            <ellipse cx="244.17" cy="-162" fill="none" stroke="#000" rx="137.85" ry="18"/>
            <text x="244.17" y="-156.95" font-family="Times,serif" font-size="14" text-anchor="middle">:features:home:home-presentation</text>
        </g>
        <g class="node" transform="translate(4 184)">
            <ellipse cx="137.17" cy="-18" fill="none" stroke="#000" rx="60.05" ry="18"/>
            <text x="137.17" y="-12.95" font-family="Times,serif" font-size="14" text-anchor="middle">:core:domain</text>
        </g>
        <g stroke="#000" class="edge">
            <path fill="none" d="M141.67 33.8C86.82 41.79 27.97 55.02 11.17 76c-10.01 12.49-8.93 22.72 0 36 14.86 22.11 40.74 35.01 65.51 42.52"/>
            <path d="m77.39 151.09 8.72 6.02-10.57.72z"/>
        </g>
        <g class="node" transform="translate(4 184)">
            <ellipse cx="351.17" cy="-90" fill="none" stroke="#000" rx="75.41" ry="18"/>
            <text x="351.17" y="-84.95" font-family="Times,serif" font-size="14" text-anchor="middle">:core:common-ui</text>
        </g>
        <g stroke="red" stroke-width="2" class="edge">
            <path fill="none" d="M274.34 40.12c14.01 9.17 31.43 20.57 46.51 30.43"/>
            <path fill="red" d="m321.38 66.71 6.45 8.41-10.28-2.55z"/>
        </g>
        <g class="node" transform="translate(4 184)">
            <ellipse cx="402.17" cy="-18" fill="none" stroke="#000" rx="85.13" ry="18"/>
            <text x="402.17" y="-12.95" font-family="Times,serif" font-size="14" text-anchor="middle">:core:design-system</text>
        </g>
        <g stroke="#000" class="edge">
            <path fill="none" d="M334.19 36.45c44.27 8.87 91.7 22.09 104.98 39.55 14.09 18.54 2.56 43.75-10.6 62.6"/>
            <path d="m431.38 140.69-8.8 5.91 3.2-10.1z"/>
        </g>
        <g class="node" transform="translate(4 184)">
            <ellipse cx="137.17" cy="-90" fill="none" stroke="#000" rx="120.96" ry="18"/>
            <text x="137.17" y="-84.95" font-family="Times,serif" font-size="14" text-anchor="middle">:features:home:home-domain</text>
        </g>
        <g stroke="#000" class="edge">
            <path fill="none" d="M221.99 40.12c-13.7 8.97-30.67 20.07-45.52 29.79"/>
            <path d="m178.62 72.68-10.28 2.54 6.45-8.4z"/>
        </g>
        <g stroke="#000" class="edge">
            <path fill="none" d="M311.86 109.17c-34.75 11.36-83.6 27.34-120.15 39.3"/>
            <path d="m192.83 151.78-10.59-.21 8.41-6.44z"/>
        </g>
        <g stroke="red" stroke-width="2" class="edge">
            <path fill="none" d="M367.51 111.95c5.8 7.96 12.86 17.64 19.34 26.54"/>
            <path fill="red" d="m388.74 135.13 3.06 10.15-8.72-6.02z"/>
        </g>
        <g stroke="#000" class="edge">
            <path fill="none" d="M141.17 112.3v24.16"/>
            <path d="m144.67 136.38-3.5 10-3.5-10z"/>
        </g>
    </g>
</svg>
