<svg xmlns="http://www.w3.org/2000/svg" width="2722pt" height="332pt" viewBox="0 0 2722.43 332">
    <g class="graph">
        <path fill="#fff" d="M0 332V0h2722.43v332z"/>
        <g class="node" transform="translate(4 328)">
            <ellipse cx="1997.61" cy="-306" fill="none" stroke="#000" rx="27" ry="18"/>
            <text x="1997.61" y="-300.95" font-family="Times,serif" font-size="14" text-anchor="middle">:app</text>
        </g>
        <g class="node" transform="translate(4 328)">
            <ellipse cx="574.61" cy="-18" fill="none" stroke="#000" rx="85.13" ry="18"/>
            <text x="574.61" y="-12.95" font-family="Times,serif" font-size="14" text-anchor="middle">:core:design-system</text>
        </g>
        <g stroke="#000" class="edge">
            <path fill="none" d="M1974.56 23.63C1741.83 29.23 84.43 71.66 15.61 148c-41.96 46.55 46.02 99.18 63 108 68.14 35.37 278.67 47.15 403.77 51.07"/>
            <path d="m482.43 303.57 9.89 3.8-10.1 3.19z"/>
        </g>
        <g class="node" transform="translate(4 328)">
            <ellipse cx="784.61" cy="-234" fill="none" stroke="#000" rx="70.8" ry="18"/>
            <text x="784.61" y="-228.95" font-family="Times,serif" font-size="14" text-anchor="middle">:core:navigation</text>
        </g>
        <g stroke="red" stroke-width="2" class="edge">
            <path fill="none" d="M1974.58 24.56c-148.24 8.55-864.46 49.89-1106.13 63.83"/>
            <path fill="red" d="m870.17 91.8-10.19-2.92 9.78-4.07z"/>
        </g>
        <g class="node" transform="translate(4 328)">
            <ellipse cx="1773.61" cy="-18" fill="none" stroke="#000" rx="60.05" ry="18"/>
            <text x="1773.61" y="-12.95" font-family="Times,serif" font-size="14" text-anchor="middle">:core:domain</text>
        </g>
        <g stroke="#000" class="edge">
            <path fill="none" d="M2001.45 40.3c-1.39 43.18-11.25 156.46-74.84 215.7-23.42 21.82-56.42 34.76-85.41 42.38"/>
            <path d="m1842.33 301.71-10.54-1.02 8.88-5.78z"/>
        </g>
        <g class="node" transform="translate(4 328)">
            <ellipse cx="2314.61" cy="-90" fill="none" stroke="#000" rx="47.26" ry="18"/>
            <text x="2314.61" y="-84.95" font-family="Times,serif" font-size="14" text-anchor="middle">:core:data</text>
        </g>
        <g stroke="#000" class="edge">
            <path fill="none" d="M2028.38 24.77c61.72 5.65 214.06 28.95 283.23 123.23 12.62 17.2 13.7 41.63 11.99 60.55"/>
            <path d="m2327.1 208.78-4.7 9.49-2.25-10.35z"/>
        </g>
        <g class="node" transform="translate(4 328)">
            <ellipse cx="2090.61" cy="-90" fill="none" stroke="#000" rx="120.96" ry="18"/>
            <text x="2090.61" y="-84.95" font-family="Times,serif" font-size="14" text-anchor="middle">:features:home:home-domain</text>
        </g>
        <g stroke="#000" class="edge">
            <path fill="none" d="M2012.59 38.76c6.88 10.29 15.62 24.2 22.02 37.24 11.83 24.06 36.63 93.71 50.36 133.07"/>
            <path d="m2088.21 207.74-.02 10.59-6.59-8.29z"/>
        </g>
        <g class="node" transform="translate(4 328)">
            <ellipse cx="2190.61" cy="-162" fill="none" stroke="#000" rx="108.16" ry="18"/>
            <text x="2190.61" y="-156.95" font-family="Times,serif" font-size="14" text-anchor="middle">:features:home:home-data</text>
        </g>
        <g stroke="#000" class="edge">
            <path fill="none" d="M2019.08 35.85c32.37 23.82 102.11 75.13 143.28 105.42"/>
            <path d="m2164.22 138.3 5.99 8.74-10.13-3.11z"/>
        </g>
        <g class="node" transform="translate(4 328)">
            <ellipse cx="1823.61" cy="-234" fill="none" stroke="#000" rx="127.1" ry="18"/>
            <text x="1823.61" y="-228.95" font-family="Times,serif" font-size="14" text-anchor="middle">:features:savedposts:saved-data</text>
        </g>
        <g stroke="#000" class="edge">
            <path fill="none" d="M1978.87 32.15c-25.27 10.17-66.88 26.91-100.07 40.26"/>
            <path d="m1880.34 75.56-10.58.49 7.97-6.98z"/>
        </g>
        <g class="node" transform="translate(4 328)">
            <ellipse cx="1773.61" cy="-90" fill="none" stroke="#000" rx="139.89" ry="18"/>
            <text x="1773.61" y="-84.95" font-family="Times,serif" font-size="14" text-anchor="middle">:features:savedposts:saved-domain</text>
        </g>
        <g stroke="#000" class="edge">
            <path fill="none" d="M1997.17 40.02c-9.51 32.99-35.03 105.72-83.56 143.98-18.55 14.63-41.63 25.63-63.48 33.71"/>
            <path d="m1851.55 220.92-10.59.02 8.27-6.62z"/>
        </g>
        <g class="node" transform="translate(4 328)">
            <ellipse cx="2537.61" cy="-90" fill="none" stroke="#000" rx="157.81" ry="18"/>
            <text x="2537.61" y="-84.95" font-family="Times,serif" font-size="14" text-anchor="middle">:features:postdetails:postdetails-domain</text>
        </g>
        <g stroke="#000" class="edge">
            <path fill="none" d="M2028.72 23.96c49.24 2.69 155.6 12.95 234.89 52.04 65.55 32.32 60.73 71.43 124 108 24.64 14.24 53.71 25.47 79.91 33.86"/>
            <path d="m2468.21 214.41 8.51 6.31-10.58.38z"/>
        </g>
        <g class="node" transform="translate(4 328)">
            <ellipse cx="2537.61" cy="-162" fill="none" stroke="#000" rx="145.01" ry="18"/>
            <text x="2537.61" y="-156.95" font-family="Times,serif" font-size="14" text-anchor="middle">:features:postdetails:postdetails-data</text>
        </g>
        <g stroke="#000" class="edge">
            <path fill="none" d="M2028.72 23.35c63.54 1.56 226.34 9.78 353.89 52.65 46.27 15.55 94.53 44.69 125.57 65.39"/>
            <path d="m2510.05 138.43 6.32 8.5-10.24-2.7z"/>
        </g>
        <g class="node" transform="translate(4 328)">
            <ellipse cx="1771.61" cy="-162" fill="none" stroke="#000" rx="113.28" ry="18"/>
            <text x="1771.61" y="-156.95" font-family="Times,serif" font-size="14" text-anchor="middle">:features:search:search-data</text>
        </g>
        <g stroke="#000" class="edge">
            <path fill="none" d="M1974.41 23.37c-68.77 1.56-246.62 9.75-282.8 52.63-10.31 12.23-7.72 21.99 0 36 7.24 13.12 19.23 23.43 31.92 31.34"/>
            <path d="m1725.05 140.17 6.95 8-10.42-1.92z"/>
        </g>
        <g class="node" transform="translate(4 328)">
            <ellipse cx="1451.61" cy="-90" fill="none" stroke="#000" rx="126.08" ry="18"/>
            <text x="1451.61" y="-84.95" font-family="Times,serif" font-size="14" text-anchor="middle">:features:search:search-domain</text>
        </g>
        <g stroke="#000" class="edge">
            <path fill="none" d="M1974.43 24.58c-68.46 4.44-245.85 18.87-293.82 51.42-46.35 31.46-21.24 73.02-65 108-20.89 16.71-47.28 28.24-72.56 36.17"/>
            <path d="m1544.34 223.44-10.58-.52 8.59-6.2z"/>
        </g>
        <g stroke="#000" class="edge">
            <path fill="none" d="M717.44 94.56C537.1 94.18 73.14 98.12 26.61 148c-10.91 11.7-9.89 23.42 0 36 56.27 71.53 320.11 104.99 461.68 118.02"/>
            <path d="m488.36 298.52 9.65 4.38-10.28 2.59z"/>
        </g>
        <g class="node" transform="translate(4 328)">
            <ellipse cx="168.61" cy="-162" fill="none" stroke="#000" rx="136.82" ry="18"/>
            <text x="168.61" y="-156.95" font-family="Times,serif" font-size="14" text-anchor="middle">:features:about:about-presentation</text>
        </g>
        <g stroke="red" stroke-width="2" class="edge">
            <path fill="none" d="M724.75 102.13c-90.42 10.11-260.92 29.23-406.14 45.87-11.33 1.3-23.16 2.66-34.97 4.03"/>
            <path fill="red" d="m285.69 155.32-10.33-2.33 9.53-4.63z"/>
        </g>
        <g class="node" transform="translate(4 328)">
            <ellipse cx="1464.61" cy="-162" fill="none" stroke="#000" rx="137.85" ry="18"/>
            <text x="1464.61" y="-156.95" font-family="Times,serif" font-size="14" text-anchor="middle">:features:home:home-presentation</text>
        </g>
        <g stroke="#000" class="edge">
            <path fill="none" d="M854.29 101.19c100.65 9.56 299.05 28.71 467.32 46.81 11.64 1.25 23.79 2.6 35.9 3.96"/>
            <path d="m1357.56 148.44 9.55 4.61-10.33 2.35z"/>
        </g>
        <g class="node" transform="translate(4 328)">
            <ellipse cx="466.61" cy="-162" fill="none" stroke="#000" rx="142.97" ry="18"/>
            <text x="466.61" y="-156.95" font-family="Times,serif" font-size="14" text-anchor="middle">:features:search:search-presentation</text>
        </g>
        <g stroke="#000" class="edge">
            <path fill="none" d="M736.46 106.48c-50.49 11.11-127.73 28.12-185.96 40.94"/>
            <path d="m551.48 150.78-10.52-1.27 9.02-5.56z"/>
        </g>
        <g class="node" transform="translate(4 328)">
            <ellipse cx="784.61" cy="-162" fill="none" stroke="#000" rx="156.78" ry="18"/>
            <text x="784.61" y="-156.95" font-family="Times,serif" font-size="14" text-anchor="middle">:features:savedposts:saved-presentation</text>
        </g>
        <g stroke="#000" class="edge">
            <path fill="none" d="M788.61 112.3v24.16"/>
            <path d="m792.11 136.38-3.5 10-3.5-10z"/>
        </g>
        <g class="node" transform="translate(4 328)">
            <ellipse cx="1133.61" cy="-162" fill="none" stroke="#000" rx="174.7" ry="18"/>
            <text x="1133.61" y="-156.95" font-family="Times,serif" font-size="14" text-anchor="middle">:features:postdetails:postdetails-presentation</text>
        </g>
        <g stroke="#000" class="edge">
            <path fill="none" d="M842.76 105.86c55.02 11.04 141.17 28.31 206.17 41.35"/>
            <path d="m1049.38 143.73 9.12 5.4-10.49 1.47z"/>
        </g>
        <g stroke="#000" class="edge">
            <path fill="none" d="M2282.72 250.04c-8.19 2.23-16.9 4.37-25.11 5.96-144.41 27.91-316.31 42.45-410.2 48.85"/>
            <path d="m1847.79 308.33-10.21-2.83 9.75-4.16z"/>
        </g>
        <g stroke="#000" class="edge">
            <path fill="none" d="M2028.93 253.5c-56.89 12.57-138.4 30.57-193.02 42.63"/>
            <path d="m1836.69 299.54-10.52-1.26 9.01-5.58z"/>
        </g>
        <g stroke="#000" class="edge">
            <path fill="none" d="M2209.26 184.06c14.94 19.53 33.55 51.46 15.35 71.94-24.54 27.63-256.84 43.36-376.49 49.7"/>
            <path d="m1848.58 309.18-10.16-2.98 9.8-4.01z"/>
        </g>
        <g stroke="#000" class="edge">
            <path fill="none" d="M2224.32 183.77c17.65 9.96 40.15 22.66 58.74 33.16"/>
            <path d="m2284.63 213.79 6.99 7.97-10.43-1.87z"/>
        </g>
        <g stroke="#000" class="edge">
            <path fill="none" d="M2170.41 183.95c-12.68 8.87-28.41 19.88-42.25 29.57"/>
            <path d="m2130.38 216.23-10.19 2.87 6.18-8.6z"/>
        </g>
        <g stroke="#000" class="edge">
            <path fill="none" d="M1861.56 111.7c13.85 8.74 28.39 20.88 36.05 36.3 7.13 14.33 8.74 22.59 0 36-9.78 15.01-24.88 25.8-41.11 33.55"/>
            <path d="m1858.24 220.61-10.56.78 7.77-7.2z"/>
        </g>
        <g stroke="#000" class="edge">
            <path fill="none" d="M1777.61 256.3v24.16"/>
            <path d="m1781.11 280.38-3.5 10-3.5-10z"/>
        </g>
        <g stroke="#000" class="edge">
            <path fill="none" d="M2427.55 250.81c-17.72 1.78-35.82 3.56-52.94 5.19-191.33 18.23-417.36 37.75-528.41 47.2"/>
            <path d="m1846.62 306.68-10.26-2.64 9.67-4.34z"/>
        </g>
        <g stroke="#000" class="edge">
            <path fill="none" d="M2620.33 181.5c58.34 14.03 122.3 38.5 88.28 74.5-29.42 31.15-647.01 47.03-859.74 51.59"/>
            <path d="m1849.13 311.08-10.07-3.28 9.92-3.72z"/>
        </g>
        <g stroke="#000" class="edge">
            <path fill="none" d="M2489.89 183.24c-37.66 11.82-88.24 27.7-124.66 39.13"/>
            <path d="m2366.45 225.65-10.59-.34 8.49-6.33z"/>
        </g>
        <g stroke="#000" class="edge">
            <path fill="none" d="M2541.61 184.3v24.16"/>
            <path d="m2545.11 208.38-3.5 10-3.5-10z"/>
        </g>
        <g stroke="#000" class="edge">
            <path fill="none" d="M1691.9 178.5c-24.41 7.68-48.47 20.41-63.29 41.5-9.19 13.09-9.22 22.93 0 36 18.32 25.96 50.52 39.28 80.32 46.08"/>
            <path d="m1709.61 298.65 9.1 5.43-10.5 1.43z"/>
        </g>
        <g stroke="#000" class="edge">
            <path fill="none" d="M1869.57 176.39c91 9.5 232.77 25.35 355.04 43.61 13.46 2.01 27.94 4.48 41.42 6.9"/>
            <path d="m2266.36 223.4 9.21 5.25-10.47 1.64z"/>
        </g>
        <g stroke="#000" class="edge">
            <path fill="none" d="M1710.86 181.17c-51.26 11.21-123.02 26.91-177.4 38.8"/>
            <path d="m1534.47 223.33-10.51-1.28 9.02-5.56z"/>
        </g>
        <g stroke="#000" class="edge">
            <path fill="none" d="M1522.72 253.59c57.94 12.59 140.82 30.61 196.17 42.64"/>
            <path d="m1719.41 292.77 9.03 5.54-10.52 1.3z"/>
        </g>
        <g stroke="#000" class="edge">
            <path fill="none" d="M219.19 183.29c75.89 26.54 225.79 78.97 305.93 107"/>
            <path d="m526.24 286.97 8.29 6.61h-10.6z"/>
        </g>
        <g class="node" transform="translate(4 328)">
            <ellipse cx="789.61" cy="-90" fill="none" stroke="#000" rx="75.41" ry="18"/>
            <text x="789.61" y="-84.95" font-family="Times,serif" font-size="14" text-anchor="middle">:core:common-ui</text>
        </g>
        <g stroke="red" stroke-width="2" class="edge">
            <path fill="none" d="M272.35 178.68c15.49 1.79 31.31 3.61 46.26 5.32 139.49 15.9 302.08 33.94 396.31 44.34"/>
            <path fill="red" d="m713.78 224.69 9.56 4.58-10.32 2.38z"/>
        </g>
        <g stroke="#000" class="edge">
            <path fill="none" d="M1390.03 181.18c-101.56 18.16-283.95 50.23-440.42 74.82-99.34 15.61-213.97 31.69-289.21 41.98"/>
            <path d="m661.02 301.43-10.39-2.11 9.44-4.82z"/>
        </g>
        <g stroke="#000" class="edge">
            <path fill="none" d="M1400.94 182.07c-52.21 14.66-110.79 39.73-80.33 73.93 25.22 28.31 264.44 43.78 386.33 49.89"/>
            <path d="m1707.03 302.39 9.82 3.98-10.16 3.01z"/>
        </g>
        <g stroke="#000" class="edge">
            <path fill="none" d="M1570.94 178.44c115.07 12.87 301.05 33.67 417.63 46.7"/>
            <path d="m1988.92 221.66 9.55 4.59-10.32 2.37z"/>
        </g>
        <g stroke="#000" class="edge">
            <path fill="none" d="M1368.61 178.77c-15.72 1.79-31.8 3.59-47 5.23-158.69 17.14-344.42 35.36-447.91 45.34"/>
            <path d="m874.21 232.81-10.29-2.53 9.62-4.44z"/>
        </g>
        <g stroke="#000" class="edge">
            <path fill="none" d="M469.35 184.36c-.52 19.23 1.37 50.32 16.26 71.64 9.96 14.25 25.05 25.16 40.2 33.27"/>
            <path d="m526.97 285.93 7.39 7.59-10.51-1.32z"/>
        </g>
        <g stroke="#000" class="edge">
            <path fill="none" d="M525.94 183.06c31.85 9.72 72.42 22.92 107.67 36.94 34.74 13.81 39.75 26.9 76 36 189.42 47.56 788.88 52.74 996.44 53.08"/>
            <path d="m1705.89 305.58 9.99 3.51-10 3.49z"/>
        </g>
        <g stroke="#000" class="edge">
            <path fill="none" d="M571.93 179.01c16.91 1.81 34.28 3.55 50.68 4.99 248.89 21.82 540.37 38.29 704.18 46.72"/>
            <path d="m1326.56 227.2 9.81 4.01-10.17 2.98z"/>
        </g>
        <g stroke="#000" class="edge">
            <path fill="none" d="M540.3 182.1c55.7 12.07 133.21 28.87 187.78 40.7"/>
            <path d="m728.5 219.31 9.03 5.54-10.51 1.3z"/>
        </g>
        <g class="node" transform="translate(4 328)">
            <ellipse cx="555.61" cy="-90" fill="none" stroke="#000" rx="65.17" ry="18"/>
            <text x="555.61" y="-84.95" font-family="Times,serif" font-size="14" text-anchor="middle">:core:common</text>
        </g>
        <g stroke="#000" class="edge">
            <path fill="none" d="M492.16 183.95c11.31 8.89 25.35 19.94 37.69 29.64"/>
            <path d="m532 210.82 5.69 8.94-10.02-3.43z"/>
        </g>
        <g stroke="#000" class="edge">
            <path fill="none" d="M762.97 184.15c-15.47 10.36-35.56 23.84-53.36 35.85-33.28 22.47-71.23 48.27-97.68 66.29"/>
            <path d="m614.22 288.96-10.24 2.74 6.3-8.52z"/>
        </g>
        <g stroke="#000" class="edge">
            <path fill="none" d="M899.05 179.09c18.22 1.79 36.91 3.5 54.56 4.91 282.67 22.54 354.21 15.16 637 36 21.46 1.58 44.28 3.48 66.34 5.42"/>
            <path d="m1657.24 221.93 9.65 4.37-10.27 2.6z"/>
        </g>
        <g stroke="#000" class="edge">
            <path fill="none" d="M789.85 184.3c.52 7.29 1.14 15.97 1.73 24.16"/>
            <path d="m795.06 208.16-2.77 10.23-4.21-9.73z"/>
        </g>
        <g stroke="#000" class="edge">
            <path fill="none" d="M1094.99 183.87c-51 19.65-139.3 51.98-217.38 72.13-72.56 18.73-156.73 33-217.24 41.99"/>
            <path d="m661.25 301.4-10.4-2.01 9.39-4.92z"/>
        </g>
        <g stroke="#000" class="edge">
            <path fill="none" d="M1163.1 184.22c32.16 20.79 89.89 55.04 144.51 71.78 136.61 41.85 304.64 51.3 398.27 53.05"/>
            <path d="m1705.74 305.55 9.95 3.66-10.06 3.34z"/>
        </g>
        <g stroke="#000" class="edge">
            <path fill="none" d="M1259.28 179.24c20.78 1.81 42.16 3.48 62.33 4.76 467.34 29.55 585.81 4.27 1053 36 14.86 1.01 30.44 2.29 45.86 3.7"/>
            <path d="m2420.52 220.19 9.63 4.42-10.28 2.55z"/>
        </g>
        <g stroke="#000" class="edge">
            <path fill="none" d="M1060.84 182.62c-60.05 12.22-142.72 29.05-200.15 40.73"/>
            <path d="m861.54 226.75-10.5-1.44 9.1-5.42z"/>
        </g>
        <g stroke="red" stroke-width="2" class="edge">
            <path fill="none" d="M750.36 253.08c-33.33 10.86-79.69 25.95-115.85 37.72"/>
            <path fill="red" d="m637.12 293.63-10.59-.23 8.42-6.42z"/>
        </g>
        <g stroke="#000" class="edge">
            <path fill="none" d="M865.17 244.09c182.41 12.98 663.04 47.17 843.06 59.97"/>
            <path d="m1708.41 300.57 9.72 4.2-10.22 2.78z"/>
        </g>
    </g>
</svg>
